<?xml version="1.0" encoding="utf-8"?>
<!-- Generator: Adobe Illustrator 23.0.4, SVG Export Plug-In . SVG Version: 6.00 Build 0)  -->
<svg version="1.1" id="Layer_1" xmlns="http://www.w3.org/2000/svg" xmlns:xlink="http://www.w3.org/1999/xlink" x="0px" y="0px"
	 viewBox="0 0 2000 1998.1" style="enable-background:new 0 0 2000 1998.1;" xml:space="preserve">
<style type="text/css">
	.st0{fill:#FFFFFF;}
</style>
<path class="st0" d="M0-0.2v1600.5l999.8,395.3l1000.2-395V-0.2H0z M1785.2,111.2l-506.8,404.5c-9.7-5.4-20-10.3-30.7-14.8
	c-38.8-16.4-86.3-24.9-141-25.3H697.6v503.7l-586.2,467.9V111.2H1785.2z M1202.2,766.7c-0.1,24.5-4.2,44.3-12.2,58.7
	c-8,14.3-18.5,25.5-31.3,33.2c-13.5,8.1-29.5,13.6-47.5,16.3c-19.1,3-39.3,4.4-60.1,4.3l-130.1-0.7V651.9l131.3,0.7
	c20.7,0.1,40.9,1.8,60.1,4.9c17.9,3,33.9,8.6,47.3,16.8c13,8,23.1,18.9,31,33.5C1198.4,722.4,1202.3,742.2,1202.2,766.7z
	 M1000.2,1875.4l-834.9-328.8l532.3-424.9v242h223.3v-307.8l180.9,0.9c55.5,0.3,103.6-7.8,143.1-23.9c39.7-16.2,72.5-38.1,97.7-65.2
	c25.2-27,43.9-58.6,55.5-93.8c11.5-34.6,17.4-70.3,17.6-106.3c0.2-36.7-5.3-72.8-16.4-107.1c-8.2-25.4-20.2-49-35.7-70.5l525-419
	v1353.8L1000.2,1875.4z"/>
</svg>
